<?xml version="1.0" encoding="utf-8"?>
<?xml-stylesheet type="text/xsl" href="rss1.xsl"?>
<rss version="2.0" xmlns:atom="http://www.w3.org/2005/Atom" xmlns:content="http://purl.org/rss/1.0/modules/content/" xmlns:dc="http://purl.org/dc/elements/1.1/" xmlns:media="http://search.yahoo.com/mrss/">
<channel>
 <title>Getty</title>
 <link>http://www.gettyimg.com/</link>
 <atom:link href="http://www.gettyimg.com/" rel="self" type="application/rss+xml" />

 
                <item>
                <title><![CDATA[【MASTER &amp; MASTER RIP】MASTER - Coldplay - A Sky Full Of Stars (Version 2) 1080p MASTER AAC2.0 H.264]]></title>
                <link><![CDATA[https://sharemania.us/threads/coldplay-a-sky-full-of-stars-version-2-1080p-master-aac2-0-h-264.219985/]]></link>
                <description><![CDATA[<article>
<blockquote class="messageText SelectQuoteContainer ugc baseHtml">
<img src="https://m.media-amazon.com/images/M/MV5BNmJhOTgwYzEtMjg1My00Nzg5LWJjMzktZTQ2YzU2MTMzNWI2XkEyXkFqcGdeQXVyNTk1NTMyNzM@._V1_.jpg" class="bbCodeImage LbImage" alt="[​IMG]" data-url="https://m.media-amazon.com/images/M/MV5BNmJhOTgwYzEtMjg1My00Nzg5LWJjMzktZTQ2YzU2MTMzNWI2XkEyXkFqcGdeQXVyNTk1NTMyNzM@._V1_.jpg" style=""> <br>
<img src="https://i.ibb.co/rvGMtBd/Coldplay-A-Sky-Full-Of-Stars-Version-2-Master-2014-mp4.jpg" class="bbCodeImage LbImage" alt="[​IMG]" data-url="https://i.ibb.co/rvGMtBd/Coldplay-A-Sky-Full-Of-Stars-Version-2-Master-2014-mp4.jpg" style=""> <br>
<div class="ToggleTriggerAnchor bbCodeSpoilerContainer">
<button type="button" class="button bbCodeSpoilerButton ToggleTrigger Tooltip JsOnly" data-target="> .SpoilerTarget"><span>Spoiler: <span class="SpoilerTitle">Media Info</span></span></button>
<div class="SpoilerTarget bbCodeSpoilerText">General<br>
Complete name : Coldplay - A Sky Full Of Stars (Version 2) [Master](2014).mp4<br>
Format : MPEG-4<br>
Format profile : Base Media / Version 2<br>
Codec ID : mp42 (isom/mp41/avc1)<br>
File size : 595 MiB<br>
Duration : 4 min 5 s<br>
Overall bit rate mode : Variable<br>
Overall bit rate : 20.3 Mb/s<br>
Frame rate : 25.000 FPS<br>
Encoded date : 2014-09-04 09:32:33 UTC<br>
Tagged date : 2014-09-04 09:32:33 UTC<br>
Writing library : Apple QuickTime<br>
<br>
Video<br>
ID : 1<br>
Format : AVC<br>
Format/Info : Advanced Video Codec<br>
Format profile : Main@L4<br>
Format settings : 2 Ref Frames<br>
Format settings, CABAC : No<br>
Format settings, Reference frames : 2 frames<br>
Codec ID : avc1<br>
Codec ID/Info : Advanced Video Coding<br>
Duration : 4 min 5 s<br>
Bit rate : 20.0 Mb/s<br>
Width : 1 920 pixels<br>
Height : 1 080 pixels<br>
Display aspect ratio : 16:9<br>
Frame rate mode : Constant<br>
Frame rate : 25.000 FPS<br>
Standard : PAL<br>
Color space : YUV<br>
Chroma subsampling : 4:2:0<br>
Bit depth : 8 bits<br>
Scan type : Progressive<br>
Bits/(Pixel*Frame)  : 0.386<br>
Stream size : 586 MiB (98%)<br>
Language : English<br>
Encoded date : 2014-09-04 09:32:33 UTC<br>
Tagged date : 2014-09-04 09:32:33 UTC<br>
Color range : Limited<br>
Codec configuration box : avcC<br>
<br>
Audio<br>
ID : 2<br>
Format : AAC LC<br>
Format/Info : Advanced Audio Codec Low Complexity<br>
Codec ID : 2 / 40 / mp4a-40-2<br>
Duration : 4 min 5 s<br>
Bit rate mode : Variable<br>
Bit rate : 320 kb/s<br>
Maximum bit rate : 333 kb/s<br>
Channel(s) : 2 channels<br>
Channel layout : L R<br>
Sampling rate : 48.0 kHz<br>
Frame rate : 46.875 FPS (1024 SPF)<br>
Compression mode : Lossy<br>
Stream size : 9.38 MiB (2%)<br>
Language : English<br>
Encoded date : 2014-09-04 09:32:33 UTC<br>
Tagged date : 2014-09-04 09:32:33 UTC<br>
<br>
Other #1<br>
ID : 3<br>
Type : Object description<br>
Format : System Core<br>
Codec ID : 02 / mp4s-02<br>
Duration : 4 min 5 s<br>
Language : English<br>
Encoded date : 2014-09-04 09:32:33 UTC<br>
Tagged date : 2014-09-04 09:32:33 UTC<br>
mdhd_Duration : 1000<br>
<br>
Other #2<br>
ID : 4<br>
Type : Scene description<br>
Format : System Core<br>
Codec ID : 02 / mp4s-02<br>
Duration : 4 min 5 s<br>
Language : English<br>
Encoded date : 2014-09-04 09:32:33 UTC<br>
Tagged date : 2014-09-04 09:32:33 UTC<br>
mdhd_Duration : 1000</div>
</div>
<div class="bbCodeBlock bbCodeVfcHH HiddenContent">
<div class="attribution type">Hidden Content:</div>
<blockquote>You must either reply or click 'Like' to see the hidden information contained here.</blockquote>
</div>
<div class="messageTextEndMarker">&nbsp;</div>
</blockquote>
</article>]]></description>
                <author><![CDATA[szymek04sawicki]]></author>
                </item>

                </channel></rss>